# Blender v2.80 (sub 55) OBJ File: 'Models.blend'
# www.blender.org
mtllib House.mtl
o Cube
v 0.646442 0.061055 -1.000000
v 0.646442 -1.000000 -1.000000
v 0.646442 0.061055 1.000000
v 0.646442 -1.000000 1.000000
v 1.046442 0.061055 1.000000
v 1.046442 0.061055 -1.000000
v -0.646442 0.061055 -1.000000
v -0.646442 -1.000000 -1.000000
v -0.646442 0.061055 1.000000
v -0.646442 -1.000000 1.000000
v 0.000000 -1.000000 -1.000000
v 0.000000 0.488879 -1.000000
v -1.046442 0.061055 1.000000
v 0.000000 -1.000000 1.000000
v -1.046442 0.061055 -1.000000
v 0.000000 0.488879 1.000000
vt 0.375000 0.750000
vt 0.125000 0.750000
vt 0.125000 0.500000
vt 0.375000 0.500000
vt 0.375000 0.500000
vt 0.375000 0.750000
vt 0.375000 0.500000
vt 0.375000 0.750000
vt 0.375000 0.375000
vt 0.375000 0.250000
vt 0.625000 0.250000
vt 0.500000 0.750000
vt 0.625000 0.750000
vt 0.625000 1.000000
vt 0.500000 1.000000
vt 0.875000 0.750000
vt 0.625000 0.625000
vt 0.375000 0.750000
vt 0.375000 0.500000
vt 0.125000 0.500000
vt 0.125000 0.750000
vt 0.375000 0.750000
vt 0.375000 0.500000
vt 0.625000 0.250000
vt 0.375000 0.250000
vt 0.625000 1.000000
vt 0.625000 0.750000
vt 0.875000 0.750000
vn 1.0000 0.0000 0.0000
vn 0.0000 -1.0000 0.0000
vn 0.3784 0.9256 0.0000
vn -0.0000 0.0000 1.0000
vn 0.0000 0.0000 -1.0000
vn -1.0000 0.0000 0.0000
vn -0.3784 0.9256 0.0000
usemtl Material
s off
f 3/1/1 4/2/1 2/3/1 1/4/1
f 3/1/2 1/4/2 6/5/2 5/6/2
f 5/6/3 6/5/3 12/7/3 16/8/3
f 16/8/4 14/9/4 4/10/4 3/11/4 5/6/4
f 11/12/2 2/13/2 4/14/2 14/15/2
f 6/5/5 1/16/5 2/13/5 11/17/5 12/7/5
f 9/18/6 7/19/6 8/20/6 10/21/6
f 9/18/2 13/22/2 15/23/2 7/19/2
f 13/22/7 16/8/7 12/7/7 15/23/7
f 16/8/4 13/22/4 9/24/4 10/25/4 14/9/4
f 11/12/2 14/15/2 10/26/2 8/27/2
f 15/23/5 12/7/5 11/17/5 8/27/5 7/28/5
